HIERARCHY
ROOT root
{
	OFFSET 0.000000 0.000000 0.000000
	CHANNELS 6 Xposition Yposition Zposition Zrotation Yrotation Xrotation
	JOINT lhip
	{
		OFFSET 0.058581 -0.082280 -0.017664
		CHANNELS 3 Zrotation Yrotation Xrotation
		JOINT lknee
		{
			OFFSET 0.043451 -0.386469 0.008037
			CHANNELS 3 Zrotation Yrotation Xrotation
			JOINT lankle
			{
				OFFSET -0.014790 -0.426874 -0.037428
				CHANNELS 3 Zrotation Yrotation Xrotation
				JOINT ltoe
				{
					OFFSET 0.041054 -0.060286 0.122042
					CHANNELS 3 Zrotation Yrotation Xrotation
					End Site
					{
						OFFSET 0.000000 0.000000 0.000000
					}
				}
			}
		}
	}
	JOINT rhip
	{
		OFFSET -0.060310 -0.090513 -0.013543
		CHANNELS 3 Zrotation Yrotation Xrotation
		JOINT rknee
		{
			OFFSET -0.043257 -0.383688 -0.004843
			CHANNELS 3 Zrotation Yrotation Xrotation
			JOINT rankle
			{
				OFFSET 0.019056 -0.420046 -0.034562
				CHANNELS 3 Zrotation Yrotation Xrotation
				JOINT rtoe
				{
					OFFSET -0.034840 -0.062106 0.130323
					CHANNELS 3 Zrotation Yrotation Xrotation
					End Site
					{
						OFFSET 0.000000 0.000000 0.000000
					}
				}
			}
		}
	}
	JOINT lowerback
	{
		OFFSET 0.004439 0.124404 -0.038385
		CHANNELS 3 Zrotation Yrotation Xrotation
		JOINT upperback
		{
			OFFSET 0.004488 0.137956 0.026820
			CHANNELS 3 Zrotation Yrotation Xrotation
			JOINT chest
			{
				OFFSET -0.002265 0.056032 0.002855
				CHANNELS 3 Zrotation Yrotation Xrotation
				JOINT lowerneck
				{
					OFFSET -0.013390 0.211636 -0.033468
					CHANNELS 3 Zrotation Yrotation Xrotation
					JOINT upperneck
					{
						OFFSET 0.010113 0.088937 0.050410
						CHANNELS 3 Zrotation Yrotation Xrotation
						End Site
						{
							OFFSET 0.000000 0.000000 0.000000
						}
					}
				}
				JOINT lclavicle
				{
					OFFSET 0.071702 0.114000 -0.018898
					CHANNELS 3 Zrotation Yrotation Xrotation
					JOINT lshoulder
					{
						OFFSET 0.122921 0.045205 -0.019046
						CHANNELS 3 Zrotation Yrotation Xrotation
						JOINT lelbow
						{
							OFFSET 0.255332 -0.015649 -0.022946
							CHANNELS 3 Zrotation Yrotation Xrotation
							JOINT lwrist
							{
								OFFSET 0.265709 0.012698 -0.007375
								CHANNELS 3 Zrotation Yrotation Xrotation
								End Site
								{
									OFFSET 0.000000 0.000000 0.000000
								}
							}
						}
					}
				}
				JOINT rclavicle
				{
					OFFSET -0.082954 0.112472 -0.023707
					CHANNELS 3 Zrotation Yrotation Xrotation
					JOINT rshoulder
					{
						OFFSET -0.113228 0.046853 -0.008472
						CHANNELS 3 Zrotation Yrotation Xrotation
						JOINT relbow
						{
							OFFSET -0.260127 -0.014369 -0.031269
							CHANNELS 3 Zrotation Yrotation Xrotation
							JOINT rwrist
							{
								OFFSET -0.269108 0.006794 -0.006027
								CHANNELS 3 Zrotation Yrotation Xrotation
								End Site
								{
									OFFSET 0.000000 0.000000 0.000000
								}
							}
						}
					}
				}
			}
		}
	}
}
MOTION
Frames: 7
Frame Time: 0.033333
0.232061 2.058008 0.915067 -178.922986 -9.736527 87.622479 5.471122 4.646811 -34.779440 -8.855985 1.088109 19.450063 0.282143 9.024584 -3.310004 0.000000 -0.000000 0.000000 -6.750501 -3.498465 -26.686524 -0.997500 -3.876618 62.875935 -2.214415 -16.583479 -32.427873 0.000000 -0.000000 0.000000 3.139250 0.942384 30.504643 -2.348876 -2.270019 13.472352 -0.895509 2.430800 -9.781471 -11.018975 2.743808 -4.864120 -1.593521 11.703693 12.115716 -38.485525 -6.048178 2.757046 -39.771914 3.239281 17.647856 4.988677 -30.577925 -4.819342 -4.673636 -12.259554 -5.954450 34.019764 11.644259 5.821895 31.216903 8.136633 5.620616 -17.443853 24.709323 -34.897544 1.055312 12.438897 -20.006147 
0.229321 2.068187 0.913157 -179.953138 -9.344051 87.334300 6.251964 4.993545 -33.426533 -8.289561 -0.249660 15.584859 -0.957828 8.756816 1.132963 0.000000 -0.000000 0.000000 -6.566098 -3.078166 -25.611426 -1.048390 -3.766304 63.103024 -2.146781 -16.403969 -33.121111 0.000000 -0.000000 0.000000 3.235928 0.977101 29.147541 -2.451656 -2.010607 14.536294 -0.906912 2.620672 -10.009436 -11.159744 3.310686 -4.306964 -1.876734 11.716719 12.321700 -38.584389 -6.115343 2.686500 -39.968012 3.642328 17.614868 5.056597 -30.777923 -4.505030 -4.571434 -12.305115 -5.895210 33.855925 11.870818 6.029396 31.471474 8.263043 5.858599 -17.412294 24.795333 -34.946211 0.863863 12.739257 -20.334541 
0.225795 2.078139 0.910912 179.136108 -9.006609 87.287428 6.838688 5.651438 -32.783352 -7.346544 1.310914 13.132483 -2.284651 8.823252 6.658818 0.000000 -0.000000 0.000000 -6.496978 -2.810429 -24.834641 -1.275034 -3.714461 63.342376 -2.312941 -16.111288 -33.680366 0.000000 -0.000000 0.000000 3.325806 1.015920 28.240847 -2.602063 -1.828707 14.862115 -0.944578 2.764237 -10.246906 -11.174693 3.979012 -3.749939 -1.944348 11.477768 12.603861 -38.289452 -6.028211 2.317142 -40.320814 3.935857 17.753747 5.142045 -31.015277 -4.205946 -4.685294 -12.267916 -5.985563 33.836920 11.589257 5.964122 31.715278 8.422888 6.189951 -17.438405 25.250399 -35.179919 1.020324 12.767310 -20.077893 
0.221376 2.088052 0.909153 178.161311 -8.799533 87.246553 7.197843 6.438278 -32.185509 -6.483977 3.310303 11.547232 -3.152902 9.174039 10.765066 0.000000 -0.000000 0.000000 -6.520653 -2.701430 -24.122788 -1.369450 -3.289308 63.528420 -2.358131 -15.873023 -34.271490 0.000000 -0.000000 0.000000 3.289457 1.114230 27.562481 -2.754538 -1.725992 15.436190 -0.987323 2.821000 -10.490896 -11.165100 4.545320 -3.591222 -2.211510 11.683129 12.886057 -38.274414 -6.096619 2.026011 -40.174661 4.006231 17.806921 5.209917 -31.440723 -4.053043 -4.343370 -12.202687 -6.257009 34.109102 11.473997 5.972639 31.576006 8.566699 6.654283 -17.628057 25.945420 -35.529200 0.900315 12.761455 -19.989327 
0.216345 2.097664 0.907258 177.412462 -8.420140 87.148148 7.706280 7.140246 -31.938580 -6.227564 3.730773 11.285890 -3.682495 9.702296 12.349970 0.000000 -0.000000 0.000000 -6.404544 -2.485241 -23.369737 -1.486415 -2.956726 63.689130 -2.325395 -15.878419 -34.653971 0.000000 -0.000000 0.000000 3.235947 1.125914 26.958544 -2.758894 -1.727387 16.079050 -0.919741 2.983220 -10.409007 -11.519464 4.871489 -3.504382 -2.267179 11.783218 12.837703 -38.197265 -6.576240 2.112162 -40.136566 3.784969 17.537039 5.388490 -31.918044 -4.441267 -3.591262 -12.183811 -6.643039 34.153394 11.672604 6.235507 31.335718 8.568307 6.314682 -17.653857 26.881756 -35.556670 0.805366 12.721167 -20.006920 
0.210527 2.108069 0.905622 176.679633 -8.194823 87.032662 8.270429 7.742406 -31.939881 -6.698942 3.960600 12.308901 -4.006278 9.920326 13.100514 0.000000 -0.000000 0.000000 -6.523792 -2.466204 -22.554224 -1.663846 -2.542979 63.834901 -2.157386 -15.775100 -34.916596 0.000000 -0.000000 0.000000 2.889749 1.230772 27.034346 -2.722467 -1.802240 16.427564 -0.843270 3.012428 -10.682552 -11.490584 5.427564 -3.450752 -2.636859 11.788515 12.434735 -38.034872 -6.618003 2.071710 -39.993367 3.587178 17.520200 5.804462 -32.762517 -4.492573 -3.305691 -11.876927 -7.279283 34.185832 11.680033 6.348249 31.359546 8.479474 6.672338 -17.890234 27.707674 -35.239659 0.522136 12.677428 -20.677781 
0.203615 2.118529 0.904487 175.946869 -7.916052 86.994794 8.913354 8.213901 -32.418539 -7.556251 4.427559 15.082234 -4.275694 9.649782 12.988133 0.000000 -0.000000 0.000000 -6.756655 -2.423477 -21.742811 -1.651960 -2.145314 63.755749 -2.136592 -15.687783 -35.072809 0.000000 -0.000000 0.000000 2.618507 1.377029 27.423147 -2.750805 -1.900861 16.499710 -0.769238 3.051407 -10.638272 -11.661938 5.751830 -3.592692 -2.817373 11.785568 11.768516 -37.816491 -6.924068 2.200524 -39.832436 2.986048 17.287729 5.852995 -33.013411 -4.678165 -2.697788 -11.900131 -7.925950 34.246483 11.794844 6.570859 31.212675 8.311193 6.341718 -17.882151 28.720577 -35.024128 0.472816 12.609340 -20.680103 
